<svg width="114" height="33" viewBox="0 0 114 33" fill="none" xmlns="http://www.w3.org/2000/svg">
<path d="M24 33C28.9706 33 33 28.9706 33 24C33 19.0294 28.9706 15 24 15C19.0294 15 15 19.0294 15 24C15 28.9706 19.0294 33 24 33Z" fill="#97CF26"/>
<path d="M7 28C9.20914 28 11 26.2091 11 24C11 21.7909 9.20914 20 7 20C4.79086 20 3 21.7909 3 24C3 26.2091 4.79086 28 7 28Z" fill="#A169F7"/>
<path d="M24 14C27.3137 14 30 11.3137 30 8C30 4.68629 27.3137 2 24 2C20.6863 2 18 4.68629 18 8C18 11.3137 20.6863 14 24 14Z" fill="#FF6163"/>
<path d="M7 14C10.866 14 14 10.866 14 7C14 3.13401 10.866 0 7 0C3.13401 0 0 3.13401 0 7C0 10.866 3.13401 14 7 14Z" fill="#00AAFF"/>
<path d="M54.485 27.9992H59L50.6382 5H47.3633L39 28H43.5154L45.1124 23.6098H52.888L54.485 28L46.37 20.1486L49.0006 12.9164L51.6296 20.1486H46.37L54.485 27.9992Z" fill="black"/>
<path d="M70.7069 12L66.5 22.9145L62.2951 12H58L63.7825 27H69.2183L75 12H70.7061" fill="black"/>
<path d="M76.6152 12.3116H80.9952V27.9524H76.6152V12.3116Z" fill="black"/>
<path d="M78.82 10.5356C80.3774 10.5356 81.64 9.30509 81.64 7.78725C81.64 6.2694 80.3774 5.03894 78.82 5.03894C77.2626 5.03894 76 6.2694 76 7.78725C76 9.30509 77.2626 10.5356 78.82 10.5356Z" fill="black"/>
<path d="M95 16.0376V12.4681H90.1894V8H86.176V12.4681H83V16.0376H86.176V23.0063C86.176 26.6008 87.8088 29 91.978 29C93.588 29 95 28.3492 95 28.3492L94.5122 24.852C94.5122 24.852 93.7219 25.112 92.75 25.112C91.5588 25.112 90.1894 24.5468 90.1894 22.7342V16.0372H95" fill="black"/>
<path d="M105.501 24.1694C103.087 24.1694 101.13 22.3273 101.13 20.0552C101.13 17.785 103.087 15.9425 105.501 15.9425C107.916 15.9425 109.872 17.7853 109.872 20.0556C109.872 22.3277 107.916 24.1697 105.501 24.1697V24.1694ZM105.501 12C100.807 12 97 15.5833 97 20C97 24.4186 100.807 28 105.501 28C110.193 28 114 24.4186 114 20C114 15.5833 110.193 12 105.501 12" fill="black"/>
</svg>
