<svg width="76" height="41" viewBox="0 0 76 41" fill="none" xmlns="http://www.w3.org/2000/svg">
<mask id="mask0" mask-type="alpha" maskUnits="userSpaceOnUse" x="30" y="0" width="19" height="29">
<path d="M30.0951 0H48.2174V28.9802H30.0951V0Z" fill="white"/>
</mask>
<g mask="url(#mask0)">
<path fill-rule="evenodd" clip-rule="evenodd" d="M35.0657 0.0104569C35.7866 0.0421215 36.5413 -0.0944886 37.2379 0.157019C37.9579 0.441095 38.4625 1.21733 38.4277 2.02071C38.4277 7.80085 38.4329 13.5801 38.4242 19.3584C38.4399 19.8985 38.3331 20.5291 38.7161 20.967C38.9523 21.271 39.3631 21.2529 39.7027 21.2665C41.8401 21.2619 43.9767 21.2665 46.1132 21.2619C47.2336 21.1244 48.2993 22.1522 48.2124 23.3346C48.2055 24.6111 48.235 25.8904 48.1994 27.1678C48.1603 28.1938 47.2292 29.0378 46.2513 28.9772C41.4736 28.9727 36.695 28.989 31.9182 28.97C30.8821 28.9745 30.0257 27.9504 30.0995 26.8874C30.1004 18.6012 30.0961 10.3168 30.1021 2.03156C30.0735 1.13229 30.7118 0.267393 31.556 0.0774049C32.7181 -0.0745852 33.8958 0.0502638 35.0657 0.0104569Z" fill="#A4B63B"/>
</g>
<path fill-rule="evenodd" clip-rule="evenodd" d="M67.5251 5.09305C68.3047 4.23953 69.3679 3.55778 70.5451 3.53047C71.0689 3.49788 71.5718 3.6714 72.0669 3.82995C72.5376 4.70725 72.6464 5.74926 72.3836 6.71023C72.006 8.26928 71.0367 9.58611 70.024 10.7849C68.2908 12.979 66.7255 15.3026 65.1385 17.606C64.8088 18.1107 64.4381 18.5881 64.1275 19.1051C63.9465 19.291 64.1597 19.4874 64.2467 19.6521C67.5182 24.5037 70.7653 29.372 74.0324 34.2262C74.6492 35.0991 75.3018 36.0812 75.2296 37.2042C75.193 37.9336 74.6014 38.4709 73.9784 38.7413C71.9947 39.6582 69.8386 40.0968 67.7052 40.4967C66.2888 40.7742 64.8584 39.8678 64.2258 38.6047C62.4518 34.8207 60.5037 31.1222 58.6208 27.3928C56.3648 30.7734 54.1687 34.1945 51.9596 37.6059C51.5446 38.2269 50.9869 38.7686 50.3065 39.0813C49.8819 39.2786 49.3442 39.2891 48.9518 39.0073C48.5246 38.7051 48.2209 38.2683 47.9042 37.8569C47.1281 36.814 46.4599 35.691 45.8221 34.5574C45.2192 33.5479 45.3071 32.2804 45.6446 31.1953C45.9474 30.2255 46.5008 29.3535 47.169 28.6004C49.6931 25.6937 52.2058 22.7773 54.736 19.8741C53.0141 16.4662 51.2383 13.0838 49.4851 9.69093C48.9874 8.76078 48.8213 7.67561 48.8735 6.62832C48.9161 5.79858 49.3024 4.93538 50.0437 4.52316C51.12 3.93301 52.5156 3.79119 53.6032 4.42538C54.1426 4.72751 54.575 5.19698 54.9126 5.71491C56.6588 8.33535 58.4207 10.9461 60.1704 13.5639C62.6475 10.7629 65.0672 7.91079 67.5251 5.09305Z" fill="#EA7628"/>
<mask id="mask1" mask-type="alpha" maskUnits="userSpaceOnUse" x="0" y="4" width="29" height="35">
<path d="M0 4.86255H28.1991V38.7642H0V4.86255Z" fill="white"/>
</mask>
<g mask="url(#mask1)">
<path fill-rule="evenodd" clip-rule="evenodd" d="M12.9821 10.3757C11.576 10.7939 10.4764 11.8959 9.68436 13.1161C8.51968 14.9249 7.88914 17.0446 7.59732 19.1767C7.1813 22.3264 7.48441 25.6111 8.67254 28.5637C9.35172 30.1861 10.3427 31.7623 11.8322 32.7196C12.9656 33.469 14.4621 33.6164 15.7058 33.0685C16.8861 32.5526 17.8171 31.5838 18.5154 30.5031C19.6705 28.7093 20.2959 26.611 20.5946 24.4993C21.0211 21.3079 20.7188 17.9716 19.496 14.9871C18.8498 13.4508 17.9118 11.9812 16.5465 11.0168C15.519 10.3029 14.1867 9.98496 12.9821 10.3757ZM12.58 4.95888C15.2802 4.60635 18.0777 5.23239 20.4131 6.65674C23.4225 8.47448 25.6694 11.4519 26.9218 14.7642C28.4165 18.6883 28.5954 23.1087 27.4794 27.1607C26.4632 30.8476 24.3067 34.2771 21.1904 36.458C19.1338 37.9179 16.6542 38.7402 14.1494 38.7642C11.4961 38.7642 8.86448 37.8575 6.7262 36.2556C3.4849 33.8553 1.33186 30.1168 0.471159 26.1537C-0.53545 21.5885 0.0690363 16.6343 2.30025 12.5326C3.74633 9.87929 5.89937 7.58648 8.57006 6.21984C9.82332 5.56894 11.1878 5.15158 12.58 4.95888Z" fill="#603D78"/>
</g>
</svg>
